<?xml version="1.0" encoding="UTF-8" standalone="no"?>
<svg
   xmlns:dc="http://purl.org/dc/elements/1.1/"
   xmlns:cc="http://creativecommons.org/ns#"
   xmlns:rdf="http://www.w3.org/1999/02/22-rdf-syntax-ns#"
   xmlns:svg="http://www.w3.org/2000/svg"
   xmlns="http://www.w3.org/2000/svg"
   viewBox="0 0 5333.3335 5333.3335"
   height="5333.3335"
   width="5333.3335"
   xml:space="preserve"
   id="svg2"
   version="1.1"><metadata
     id="metadata8"><rdf:RDF><cc:Work
         rdf:about=""><dc:format>image/svg+xml</dc:format><dc:type
           rdf:resource="http://purl.org/dc/dcmitype/StillImage" /></cc:Work></rdf:RDF></metadata><defs
     id="defs6" /><g
     transform="matrix(1.3333333,0,0,-1.3333333,0,5333.3333)"
     id="g10"><g
       transform="scale(0.1)"
       id="g12"><g
         transform="scale(2.1821)"
         id="g14"><path
           id="path16"
           style="fill:#000000;fill-opacity:1;fill-rule:nonzero;stroke:none"
           d="m 9452.56,4231.48 c -37.35,-14.53 89.69,-1123.92 427.53,-1750.15 183.81,598.78 -98.44,1127.36 -427.53,1750.15 z m 636.34,5224.66 c 4936.4,-340.69 5649.9,6843.86 1079.4,4757.56 -1665.24,-760.2 -2052.07,-2207.2 -2455.39,-1560.5 -120.71,193.4 -232.58,392.9 -338.9,594.7 -473.12,898.3 -1499.57,1723 -2485.32,1587.7 C 4829.85,14690.3 4158.41,13613.5 4023.52,12516.8 3689.71,9802.82 5873.98,8050.97 7900.61,6246.65 c 400.63,-356.67 5.64,-274.96 286.01,2233.86 -651.66,138.68 -1058.29,193.76 -1611.38,460.34 -617.44,297.56 -626.24,1208.95 262.08,1023.05 270.8,-56.64 546.54,-231.7 1564,-375.37 107.52,388.8 198.3,766.27 387.98,1094.27 528.76,914.3 1600.2,371.2 1522,-282 -60.6,-506.42 -122.6,-634.78 -222.4,-944.66 z M 8115.87,5666.94 C 6098.03,7402.28 4015.76,8999.28 3685.02,11346.4 c -394.63,2800.5 1588.67,4448.1 3438.08,3500.5 1119.39,-573.5 1419.79,-1476.2 1803.68,-2155.1 564.41,749.4 1158.52,1481.5 2260.72,1939.3 861.6,357.9 1902.4,436.7 2674.1,-54.2 C 15917.1,13197.6 14571.8,8518.83 9746.09,8415.81 9521.39,7175.49 9251.47,5020.17 9422.22,4810.46 10004.6,4095.24 10497.1,3072.92 10289.3,2157.6 10182.5,1687 8658.6,1520.33 8115.87,5666.94" /></g></g></g></svg>