<svg xmlns="http://www.w3.org/2000/svg" width="447.603" height="509.958" viewBox="0 0 447.603 509.958"><g transform="translate(-31.172)"><path d="M473.88,334.768l-26.1-26.091a16.781,16.781,0,0,0-21.583-1.793L406.731,287.42a55.83,55.83,0,0,1-15.594-30.041L386.206,229a83.651,83.651,0,0,0-23.356-45.02L305.463,126.6c-17.49-17.509-48.746-4.565-48.746,20.19a28.363,28.363,0,0,0,8.356,20.185l15.508,15.507a28.809,28.809,0,0,0-16.3,18.14L213,149.344l-34.217-34.217a12.175,12.175,0,0,1,17.229-17.208L231.8,133.707a7.5,7.5,0,1,0,10.6-10.607L206.62,87.313a27.179,27.179,0,0,0-45.712,13.16,27.145,27.145,0,0,0-37.068,25.974,27.15,27.15,0,0,0-24.534,40.16,27.158,27.158,0,0,0-11.857,45.366l17.034,17.034a27.169,27.169,0,0,0-10.654,45l93,93A7.5,7.5,0,1,0,197.434,356.4l-93-93a12.176,12.176,0,0,1,17.216-17.222l82.283,82.283a7.5,7.5,0,0,0,10.608-10.607l-93.612-93.612a12.176,12.176,0,0,1,17.22-17.219l93.611,93.611a7.5,7.5,0,0,0,10.608-10.607L148.76,196.415a12.175,12.175,0,0,1,17.215-17.222l93.616,93.616A7.5,7.5,0,0,0,270.2,262.2l-85.023-85.023a12.176,12.176,0,1,1,17.219-17.22L310.922,268.491a7.855,7.855,0,0,0,10.61,0,7.5,7.5,0,0,0,0-10.607l-39.473-39.471c-12.236-12.236,7.028-31.315,19.172-19.167l57.389,57.388a68.64,68.64,0,0,1,19.188,36.973c4.4,25.338,7.123,49.96,26.977,68.75l-82.972,82.971c-14.763-15.581-32.88-22.61-52.753-28.94A74.057,74.057,0,0,1,239.3,398.269l-17.521-17.522a7.5,7.5,0,0,0-10.607,10.6l17.522,17.523a89.115,89.115,0,0,0,35.815,21.8c17.524,5.582,33.764,11.427,46.73,25.287a16.774,16.774,0,0,0,.607,23.04l26.1,26.1a16.912,16.912,0,0,0,23.711,0l101.59-101.591a16.912,16.912,0,0,0,0-23.711l-5.334-5.335,15.975-15.982a16.826,16.826,0,0,0-.009-23.72ZM110.328,196.409a27.01,27.01,0,0,0-6.565,10.655l-5.7-5.7a12.177,12.177,0,1,1,17.22-17.221l5.7,5.7A27.024,27.024,0,0,0,110.328,196.409Zm27.827-27.828a27.01,27.01,0,0,0-6.565,10.655L114.556,162.2a12.176,12.176,0,0,1,17.219-17.219l17.034,17.034a27,27,0,0,0-10.654,6.564Zm36.415-19.238A27.01,27.01,0,0,0,168.005,160l-25.623-25.623a12.176,12.176,0,0,1,17.22-17.219l25.622,25.622a27.007,27.007,0,0,0-10.654,6.565ZM397.521,319.409l-4.243-24.417c.9,1.016,22.135,22.328,22.135,22.328L401.1,331.631A56.273,56.273,0,0,1,397.521,319.409ZM311.84,188.629a28.452,28.452,0,0,0-10.627-6.729l-25.531-25.531c-12.369-12.364,6.809-31.542,19.174-19.163l57.387,57.377a68.72,68.72,0,0,1,19.186,36.983l3.638,20.937a84.943,84.943,0,0,0-5.837-6.487ZM452.642,392.9,351.051,494.49a1.766,1.766,0,0,1-2.5,0l-26.1-26.1a1.767,1.767,0,0,1,0-2.5L424.045,364.3c0-.928,2.458-.038,2.5,0l26.1,26.1A1.764,1.764,0,0,1,452.642,392.9Zm10.632-45.017-15.966,15.973L437.149,353.7a17.159,17.159,0,0,0-21.58-1.786s-5.259-5.423-6.529-7l25.632-25.632a1.758,1.758,0,0,1,2.494,0l26.1,26.09A1.783,1.783,0,0,1,463.274,347.881Z" fill="#50c38e"/><path d="M413.657,392.193a7.508,7.508,0,1,0,10.618,0A7.508,7.508,0,0,0,413.657,392.193Z" fill="#50c38e"/><path d="M85.572,30.452a7.5,7.5,0,0,0,0-15H77.62V7.5a7.5,7.5,0,0,0-15,0v7.952H54.668a7.5,7.5,0,0,0,0,15H62.62V38.4a7.5,7.5,0,0,0,15,0V30.452Z" fill="#50c38e"/><path d="M38.68,90.579a7.508,7.508,0,1,0,7.508,7.508A7.508,7.508,0,0,0,38.68,90.579Z" fill="#50c38e"/><path d="M121.913,83.873a7.508,7.508,0,1,0-7.508-7.508A7.508,7.508,0,0,0,121.913,83.873Z" fill="#50c38e"/></g></svg>