<?xml version="1.0" standalone="no"?>
<!DOCTYPE svg PUBLIC "-//W3C//DTD SVG 20010904//EN"
 "http://www.w3.org/TR/2001/REC-SVG-20010904/DTD/svg10.dtd">
<svg version="1.0" xmlns="http://www.w3.org/2000/svg"
 width="270.000000pt" height="78.000000pt" viewBox="0 0 270.000000 78.000000"
 preserveAspectRatio="xMidYMid meet">

<g transform="translate(0.000000,78.000000) scale(0.100000,-0.100000)"
fill="#000000" stroke="none">
<path d="M912 738 c-17 -17 -17 -399 0 -416 15 -15 51 -15 66 0 8 8 12 58 12
158 0 154 9 190 49 190 37 0 41 -19 41 -180 0 -164 4 -180 45 -180 40 0 45 17
45 164 0 147 9 188 43 194 41 8 47 -13 47 -172 0 -166 7 -191 50 -184 41 5 50
40 50 193 0 154 -10 207 -43 230 -31 22 -89 19 -121 -6 l-26 -20 -26 20 c-15
12 -40 21 -56 21 -35 0 -88 -26 -88 -43 0 -6 -6 -1 -13 13 -14 28 -55 38 -75
18z"/>
<path d="M1453 730 c-38 -23 -55 -52 -51 -87 7 -57 78 -57 94 -1 8 27 15 33
38 33 36 0 56 -27 40 -52 -6 -10 -38 -33 -70 -51 -78 -44 -92 -58 -104 -104
-14 -50 -3 -106 26 -135 30 -30 91 -31 127 -3 l26 21 11 -21 c12 -23 64 -28
77 -7 11 17 3 358 -9 380 -24 46 -147 63 -205 27z m127 -245 c0 -71 -27 -113
-64 -99 -38 14 -26 87 20 123 38 30 44 27 44 -24z"/>
<path d="M1740 740 c-13 -8 -15 -42 -15 -210 0 -215 1 -219 52 -220 36 0 43
30 43 183 0 127 2 146 18 160 25 22 49 21 62 -2 5 -11 10 -85 10 -168 0 -156
4 -173 45 -173 41 0 45 15 45 197 0 220 -9 243 -94 243 -19 0 -45 -9 -59 -20
l-26 -21 -11 21 c-11 21 -45 26 -70 10z"/>
<path d="M2072 738 c-17 -17 -17 -399 0 -416 18 -18 56 -14 68 7 5 11 10 82
10 158 0 148 10 183 50 183 33 0 40 -33 40 -187 0 -156 4 -173 45 -173 42 0
45 15 45 207 0 182 0 184 -25 208 -33 34 -96 35 -129 1 l-24 -23 -11 23 c-12
26 -49 32 -69 12z"/>
<path d="M2433 730 c-37 -22 -53 -48 -53 -84 0 -55 83 -60 95 -6 11 51 85 50
85 -1 0 -20 -20 -37 -97 -80 -29 -16 -60 -40 -68 -53 -17 -26 -23 -106 -11
-144 16 -48 103 -68 148 -33 24 20 25 20 41 0 19 -21 62 -25 74 -6 10 17 3
358 -8 379 -26 48 -146 65 -206 28z m127 -245 c0 -71 -27 -113 -64 -99 -19 7
-28 47 -17 77 9 23 56 66 74 67 4 0 7 -20 7 -45z"/>
<path d="M313 493 l-31 -4 60 -181 61 -181 58 179 c32 98 57 180 55 182 -6 5
-170 10 -203 5z"/>
<path d="M112 470 c-29 -4 -55 -10 -58 -13 -2 -2 -3 -93 -2 -202 l3 -198 73
204 c40 112 72 207 72 212 0 8 -14 8 -88 -3z"/>
<path d="M600 477 c0 -4 125 -354 139 -387 7 -18 10 28 10 172 1 197 1 198
-21 202 -38 8 -128 17 -128 13z"/>
<path d="M236 294 c-23 -57 -86 -237 -86 -245 0 -5 40 -9 90 -9 50 0 90 4 90
8 0 4 -19 66 -43 137 -33 97 -45 124 -51 109z"/>
<path d="M516 183 c-21 -65 -41 -124 -43 -130 -4 -10 17 -13 86 -13 71 0 91 3
91 14 0 21 -82 246 -89 246 -4 0 -24 -53 -45 -117z"/>
<path d="M1645 270 c-4 -7 -3 -16 3 -22 14 -14 45 -2 40 15 -6 16 -34 21 -43
7z"/>
<path d="M2090 246 c0 -13 -7 -29 -16 -37 -14 -11 -14 -13 0 -21 12 -7 16 -26
16 -78 0 -58 3 -71 19 -80 21 -11 51 -4 51 11 0 5 -7 12 -15 15 -23 9 -21 112
3 130 16 13 16 15 0 25 -10 5 -18 21 -18 34 0 18 -5 25 -20 25 -14 0 -20 -7
-20 -24z"/>
<path d="M2597 263 c-4 -3 -7 -16 -7 -29 0 -12 -6 -24 -12 -27 -10 -4 -10 -7
0 -18 7 -7 12 -39 12 -75 0 -64 15 -94 46 -94 22 0 30 31 11 42 -24 13 -24
106 1 124 16 13 16 15 0 28 -10 7 -18 23 -18 35 0 20 -19 28 -33 14z"/>
<path d="M890 200 c-16 -16 -20 -33 -20 -80 0 -68 21 -100 65 -100 44 0 65 32
65 100 0 68 -21 100 -65 100 -14 0 -34 -9 -45 -20z m66 -61 c7 -43 -12 -97
-28 -81 -13 13 -16 88 -5 116 10 26 26 9 33 -35z"/>
<path d="M1034 207 c-3 -8 -4 -51 -2 -98 3 -70 6 -84 21 -87 15 -3 17 5 17 55
0 71 8 103 25 103 19 0 25 -24 25 -97 0 -56 2 -64 18 -61 14 3 17 16 20 83 3
101 -10 126 -57 108 -17 -6 -31 -7 -31 -2 0 14 -30 11 -36 -4z"/>
<path d="M1246 204 c-8 -20 -8 -148 0 -168 8 -21 30 -21 38 0 3 9 6 45 6 81 0
56 2 64 18 61 14 -3 17 -16 20 -81 2 -68 5 -78 20 -75 14 3 18 17 20 81 2 68
5 78 20 75 14 -3 18 -18 22 -78 4 -58 8 -75 20 -75 12 0 16 17 18 86 3 100 -8
121 -58 102 -20 -8 -31 -8 -39 0 -8 8 -19 8 -41 0 -17 -6 -30 -7 -30 -2 0 15
-27 10 -34 -7z"/>
<path d="M1499 199 c-22 -22 -21 -42 3 -47 9 -2 19 6 23 17 8 26 35 28 35 3 0
-10 -15 -26 -35 -36 -38 -21 -50 -45 -41 -81 7 -28 38 -40 65 -26 14 8 20 8
23 -1 2 -6 12 -9 21 -5 23 9 24 142 1 175 -20 28 -67 29 -95 1z m57 -135 c-3
-9 -10 -12 -16 -9 -14 9 -13 38 3 54 10 10 13 8 15 -9 2 -12 1 -28 -2 -36z"/>
<path d="M1650 120 c0 -91 2 -101 18 -98 15 3 17 16 17 98 0 82 -2 95 -17 98
-16 3 -18 -7 -18 -98z"/>
<path d="M1734 207 c-3 -8 -4 -52 -2 -98 2 -67 6 -84 18 -84 12 0 16 17 20 75
4 60 8 75 22 78 15 3 18 -7 20 -75 2 -61 6 -78 18 -78 24 0 22 174 -2 189 -13
8 -23 8 -38 -1 -12 -8 -21 -9 -25 -3 -9 14 -25 12 -31 -3z"/>
<path d="M1946 198 c-24 -33 -20 -45 26 -88 33 -30 40 -42 31 -51 -13 -13 -33
-4 -33 17 0 8 -9 14 -20 14 -28 0 -26 -35 2 -54 30 -21 61 -20 81 2 26 29 20
59 -18 93 -34 31 -46 59 -25 59 5 0 14 -9 20 -20 6 -11 15 -20 21 -20 19 0 21
31 4 50 -25 27 -70 26 -89 -2z"/>
<path d="M2176 204 c-3 -9 -6 -46 -6 -84 0 -76 6 -100 25 -100 18 0 25 23 25
86 0 49 3 55 25 64 14 5 25 17 25 25 0 24 -29 30 -45 9 -13 -18 -14 -18 -15
-1 0 21 -26 23 -34 1z"/>
<path d="M2300 200 c-16 -16 -20 -33 -20 -80 0 -67 21 -100 63 -100 43 0 79
48 52 70 -11 9 -17 6 -30 -14 -21 -31 -35 -25 -35 14 0 26 4 29 38 32 35 3 37
5 35 36 0 18 -7 39 -13 47 -18 21 -67 18 -90 -5z m60 -41 c0 -10 -7 -19 -15
-19 -15 0 -21 31 -9 43 11 10 24 -3 24 -24z"/>
<path d="M2450 200 c-16 -16 -20 -33 -20 -80 0 -67 21 -100 63 -100 43 0 79
48 52 70 -11 9 -17 6 -30 -14 -21 -31 -35 -25 -35 14 0 26 4 29 38 32 35 3 37
5 35 36 0 18 -7 39 -13 47 -18 21 -67 18 -90 -5z m60 -41 c0 -10 -7 -19 -15
-19 -15 0 -21 31 -9 43 11 10 24 -3 24 -24z"/>
</g>
</svg>
