<svg xmlns="http://www.w3.org/2000/svg" width="70.021" height="62.855" viewBox="0 0 70.021 62.855"><g transform="translate(-1.978 -5.575)"><path d="M47.2,62.41a1,1,0,0,1-.618-1.786A22.959,22.959,0,0,0,48.738,58.7a1,1,0,0,1,1.425,1.4,24.875,24.875,0,0,1-2.346,2.1,1,1,0,0,1-.617.21Z" fill="#50c38e"/><path d="M30.17,68.43A28.17,28.17,0,1,1,52.307,22.863a27.8,27.8,0,0,1,6.033,17.4,28.146,28.146,0,0,1-3.518,13.631,1,1,0,1,1-1.746-.976A26.171,26.171,0,1,0,30.17,66.43c.254,0,.512,0,.768-.017a1,1,0,0,1,.143,2C30.777,68.429,30.474,68.43,30.17,68.43Z" fill="#50c38e"/><path d="M38.47,67.13a1,1,0,0,1-.3-1.954,23.111,23.111,0,0,0,2.657-1.016,1,1,0,1,1,.829,1.82,24.931,24.931,0,0,1-2.884,1.1.984.984,0,0,1-.3.05Z" fill="#50c38e"/><path d="M30.169,60A19.738,19.738,0,1,1,49.907,40.262,19.738,19.738,0,0,1,30.169,60Zm0-37.475A17.738,17.738,0,1,0,47.907,40.263,17.738,17.738,0,0,0,30.169,22.525Z" fill="#50c38e"/><path d="M30.169,51.567a11.306,11.306,0,1,1,11.306-11.3,11.306,11.306,0,0,1-11.306,11.3Zm0-20.611a9.306,9.306,0,1,0,9.306,9.306,9.306,9.306,0,0,0-9.306-9.306Z" fill="#50c38e"/><path d="M30.17,41.262a1,1,0,0,1-.619-1.786L64.339,12.122a1,1,0,1,1,1.236,1.572L30.788,41.048a1,1,0,0,1-.618.214Z" fill="#50c38e"/><path d="M62.682,22.427a.988.988,0,0,1-.442-.1l-5.263-2.592a1,1,0,0,1-.534-.679L55.166,13.33a1,1,0,0,1,.357-1l8.318-6.54a1,1,0,0,1,1.616.708l.445,5.674,5.409,1.772a1,1,0,0,1,.307,1.736L63.3,22.213a1,1,0,0,1-.618.214Zm-4.391-4.278,4.268,2.1,6.354-5-4.267-1.4a1,1,0,0,1-.686-.872L63.609,8.51l-6.354,5Z" fill="#50c38e"/></g></svg>