<svg xmlns="http://www.w3.org/2000/svg" width="585.042" height="593.606" viewBox="0 0 585.042 593.606"><g transform="translate(-4.283)"><path d="M555.987,45.615a42.533,42.533,0,0,0-22.072-5.77c-11.069,0-23.374,3.6-34.651,10.123-17.948,10.4-29.621,30.58-33.746,58.369-2.7,18.124-1.783,37.54-.894,56.324.425,9.107.873,18.474.9,27.65a50.469,50.469,0,0,0-18.85-11.608c-26.267-9.38-49.005-7.254-67.107,6.271-19.588,14.619-19.895,47.618-15.487,64.986,3.773,14.876,19.747,21.653,32.99,21.653a35.439,35.439,0,0,0,14.6-3c20.388-9.307,28.119-31.326,18.792-53.542-2.04-4.859-6.613-7.764-12.231-7.764-4.578,0-8.747,1.991-10.873,5.194a9.616,9.616,0,0,0-.588,9.3c3.811,9.086,4.8,15.814-1.424,23.211-3.248,2.1-6.1,3.17-8.5,3.17-4.667,0-8.131-4.406-10.313-13.1a92.041,92.041,0,0,1,1.138-14.043c2.346-15.8,12.877-24.505,29.649-24.505a58.474,58.474,0,0,1,11.493,1.22c21.91,4.427,25.77,17.442,25.231,39.918C453,282.756,402.2,308.411,361.38,329.023c-10.155,5.129-19.751,9.972-27.887,14.729-16.267,9.5-27.793,18.6-36.03,28.471-28.716-31.09-36.386-65.688-22.784-102.845,15.268-41.726,49.532-65.035,85.8-89.719,24.414-16.618,49.661-33.8,68.14-57.026,18.784-23.619,25.545-61.343,16.067-89.7C435.113,4.28,400.115,0,380.111,0q-2.281,0-4.5.069c-30.854.947-52.114,17.626-55.484,43.53-1.33,10.277,2.228,21.391,9.771,30.5,7.825,9.449,18.711,15.247,29.87,15.9,15.761.918,30.077-5.427,37.891-16.553,6.275-8.935,7.544-19.923,3.565-30.935a12.235,12.235,0,0,0-11.9-8.05,13.249,13.249,0,0,0-10.84,5.153,10.047,10.047,0,0,0-1.024,9.441c1.709,4.725,1.538,8.755-.494,11.648-2.149,3.068-6.486,4.9-11.6,4.9-7.03,0-15.667-3.558-19.111-11.5a18.367,18.367,0,0,1-.322-14.745c2.411-5.7,7.883-10.514,15.011-13.215,8.792-3.337,21.212-3.88,36.446-1.615C414.934,27.14,423.821,38.735,423.813,59c-.024,27.732-10.571,48.291-34.2,66.671-6.233,4.847-12.655,9.547-18.8,13.97a40.708,40.708,0,0,0-10.4-21.575c-8.172-8.9-18.434-15.243-28.352-21.383-1.91-1.179-3.823-2.362-5.725-3.57-19.025-12.028-27.148-33.044-21.2-54.832a10.756,10.756,0,0,0-1.727-9.571,13.774,13.774,0,0,0-10.833-5.08,11.219,11.219,0,0,0-11.306,8.413c-6.418,23.525-1.6,47.585,12.889,64.37,4.974,5.757,13.061,11.326,21.628,17.226,13.542,9.323,28.891,19.894,31.008,31.681.837,4.659-.375,9.278-3.7,14.113-4.627,3.321-9.237,6.663-13.782,10.069-43.632,32.713-70.588,67.1-82.4,105.138a99.724,99.724,0,0,0-4.207,21.808c-11.032-32.62-4.635-68.267,1.587-102.922,6.393-35.614,11.457-73.481-2.685-110.458-10.11-26.438-37.916-55.953-75.076-58.263q-2.381-.147-4.766-.147c-29.927,0-55.529,16.463-63.709,40.963-9.127,27.344,4.182,54.737,30.963,63.717a63.057,63.057,0,0,0,20.106,3.26c24.872,0,43.375-13.456,47.136-34.276,1.754-9.7-.424-18.531-6.283-25.549-7.042-8.425-18.882-13.46-31.673-13.46a45.761,45.761,0,0,0-20.175,4.6c-4.868,2.407-7.181,6.969-6.03,11.91a12.724,12.724,0,0,0,18.029,8.625c9.645-2.061,16.243-1.347,19.27,2.093,1.979,2.256,2.664,5.9,2.048,10.718-1.587,8.772-13.586,12.163-23.378,12.4l-.62.008c-13.26,0-23.791-10.18-27.336-20.232a23.4,23.4,0,0,1,3.122-22.4c7.638-10.795,24.459-18.633,40-18.633a39.6,39.6,0,0,1,6.03.445c65.741,10.2,57.614,97.834,53.558,124.452-1.036,6.773-2.183,13.545-3.325,20.314-4.675,27.572-9.486,55.994-6.124,84.081-3.88-6.006-7.454-12.3-10.947-18.438-3.737-6.581-7.271-12.8-11.146-18.7-12.962-19.727-30.416-37.353-47.295-54.4-23.77-24.011-48.352-48.838-60.694-79.854-6.822-17.144-8.67-42.885,2.583-61.751,7.136-11.966,18.2-18.906,32.893-20.624a12.944,12.944,0,0,0,11.624-13.672c-.31-5.32-4.149-10.73-12.1-9.792C79.831,4.978,53.992,34.525,52.475,75.733c-1.167,31.771,15.076,60.3,30.18,79.748-25.2-2.419-41.958,7.931-47.585,29.384a10.838,10.838,0,0,0,1.808,9.584,13.831,13.831,0,0,0,10.828,5.067,11.1,11.1,0,0,0,11.232-8.454c2.4-9.119,8.258-13.55,17.931-13.55,15.941,0,37.308,12.187,47.03,19.874,15.757,12.456,27.752,29.139,38.332,43.855,6.116,8.5,11.673,17.956,17.05,27.1,7.01,11.922,14.227,24.2,23.016,35.063a97.643,97.643,0,0,0-12.077-.771c-28.115,0-49.637,12.953-71.021,27.385A60.759,60.759,0,0,1,85.033,340.1c-16.549,0-32.645-6.274-43.064-16.785a43.473,43.473,0,0,1-12.832-31.624c.191-21.485,21.554-33.317,40.257-30.812,11.277,1.514,18.5,8.523,22.525,14.052C95.889,281,96.33,287.3,93.3,294.106c-1.832,3.656-6.459,5.292-10.237,5.292-2.991,0-5.488-1-6.512-2.619-1.105-1.742-.42-4.06.355-5.7a11.449,11.449,0,0,0-.677-11.354,14.053,14.053,0,0,0-11.367-6.422,10.258,10.258,0,0,0-9.49,6.242,32.7,32.7,0,0,0,.942,29.65c4.549,8.009,12.33,12.929,21.906,13.859,26.369,2.489,41.146-18,41.91-38.226.885-23.468-21.718-41.241-44.5-46.671-22-5.239-45.141,3.59-60.633,22.771-17.6,21.8-10.694,50.588.571,68.63,12.689,20.322,38.34,33.174,68.613,34.374,16.916.677,29.878-4.868,42.816-12.461-.841,1.4-1.624,2.774-2.391,4.1-4.757,8.3-8.515,14.863-19.747,18.939-10.461,3.8-22.914,1.265-38.115-7.821a12.32,12.32,0,0,0-6.369-1.856c-5.206,0-10.061,3.884-11.538,9.233a11.138,11.138,0,0,0,5.377,12.88c13.088,7.83,27.189,11.967,40.775,11.967a57.884,57.884,0,0,0,42.583-17.887c4.374-4.524,7.234-10.2,10-15.7.763-1.506,1.51-3,2.285-4.443,4.354-8.136,11.75-15.386,22.612-22.167,11.277-7.038,25.341-10.388,39.915-9.571,2.187.641,4.37,1.387,6.532,2.228a42.29,42.29,0,0,0-26.536,16.365,45.02,45.02,0,0,0-7.793,36.989,10.689,10.689,0,0,0,10.947,8.58,14.121,14.121,0,0,0,10.845-5.031,11.16,11.16,0,0,0,2.118-9.6c-1.42-6.292-.355-11.886,3.08-16.186,3.843-4.807,10.359-7.679,17.43-7.679,7,0,15.635,3.154,19.058,11.971L247.9,540.428c-.021,15.189-.037,29.531,12.048,42.7,6.206,6.761,15.94,10.481,27.417,10.481a51.042,51.042,0,0,0,14.134-1.991,11.475,11.475,0,0,0,8.56-12.917c-.734-5.108-4.871-10.286-11.375-10.286a13.536,13.536,0,0,0-3.828.575c-7.226,2.118-12.55,1.449-16.1-2.129-6.353-6.41-6.218-20.784-6.124-31.277l.147-140.463a11.2,11.2,0,0,0,1.416-5.369c.008-.526.008-1.057,0-1.583a119.863,119.863,0,0,1,8.355,15.761,9.8,9.8,0,0,0-.094,1.318V548.212c0,15,24.75,15.015,24.746,0,0-14.442-.543-29.208-1.069-43.488-.727-19.784-1.473-40.241-.791-60.127.95-27.895,15.956-42.016,45.875-43.166,8.188-.331,14.827-.367,21.18,4.59,4.022,3.146,5.569,6.825,4.354,10.363a9.731,9.731,0,0,1-8.671,6.287c-3.3,0-5.772-2.281-6.977-6.414a11.436,11.436,0,0,0-11.444-8.348,13.654,13.654,0,0,0-10.832,5.1,10.608,10.608,0,0,0-1.575,9.552c5.071,17.4,19.915,23.6,32.114,23.6,12.149,0,23.688-5.725,29.4-14.586,3.618-5.606,6.683-15.035.763-28.091-7.765-17.137-25.606-26.961-48.956-26.961a92.857,92.857,0,0,0-28.531,4.684c10.444-10.3,24.586-18.086,38.336-25.646,3.627-1.995,7.188-3.958,10.6-5.916,33.562-19.344,75.329-43.415,121.461-43.415a56.729,56.729,0,0,1,33.5,11.733c5.623,4.3,9.625,10.979,10.2,17.034a14.661,14.661,0,0,1-3.814,11.575c-2.411,2.7-5.088,4.076-7.956,4.076-7.454,0-14.472-8.784-15.843-14.6a10.8,10.8,0,0,0-11.024-8.543,14.046,14.046,0,0,0-10.845,5.042,11.073,11.073,0,0,0-2.027,9.6c4.32,18.319,20.18,30.633,39.466,30.633a47.046,47.046,0,0,0,11.546-1.461c10.225-2.582,18.165-9.641,22.359-19.878,4.675-11.415,3.822-24.712-2.236-34.7-17.075-28.144-47.516-34.056-70.041-34.056a143.858,143.858,0,0,0-22.077,1.771,95.5,95.5,0,0,0,7.434-13.28c21.686-34.917,19.972-76.961,18.307-117.626q-.215-5.3-.416-10.551c-1.2-32.913,2.138-68,35.961-78.642a26.5,26.5,0,0,1,7.944-1.281c15.933,0,26.353,16.7,30.437,31,2.808,9.853,1.208,19.274-4.39,25.924-4.325,1.812-8.025,2.733-11.012,2.733-3.909,0-9.2-1.306-10.05-12.289a25.57,25.57,0,0,1,7.508-15.985,11.449,11.449,0,0,0,1.881-12.688,12.882,12.882,0,0,0-11.306-7.72,10.8,10.8,0,0,0-8.271,4.015c-6.96,8.03-21.963,28.833-10.935,48.516,6,10.714,18.776,21.522,33.787,21.526a30.443,30.443,0,0,0,14.479-3.688c15.275-8.168,23.9-22.195,24.3-39.5C589.815,81.972,576.118,57.6,555.987,45.615Z" fill="#50c38e"/></g></svg>