<?xml version="1.0" standalone="no"?>
<!DOCTYPE svg PUBLIC "-//W3C//DTD SVG 20010904//EN"
 "http://www.w3.org/TR/2001/REC-SVG-20010904/DTD/svg10.dtd">
<svg version="1.0" xmlns="http://www.w3.org/2000/svg"
 width="500.000000pt" height="126.000000pt" viewBox="0 0 500.000000 126.000000"
 preserveAspectRatio="xMidYMid meet">

<g transform="translate(0.000000,126.000000) scale(0.100000,-0.100000)"
fill="#000000" stroke="none">
<path d="M2522 1079 c-5 -13 -15 -97 -22 -186 -7 -90 -14 -163 -16 -163 -2 0
-38 67 -79 149 -41 82 -79 152 -85 156 -26 16 -18 -35 30 -190 29 -91 50 -169
47 -172 -3 -3 -61 25 -130 61 -68 36 -129 66 -136 66 -32 0 1 -34 110 -115
l120 -90 -148 -3 c-140 -2 -179 -10 -157 -31 5 -5 74 -19 154 -31 80 -12 147
-26 148 -31 7 -19 22 -8 42 30 28 56 64 81 117 81 64 0 98 -22 125 -80 17 -37
27 -48 38 -44 8 4 70 16 137 28 67 12 125 25 129 28 20 20 -17 28 -132 28 -70
0 -124 4 -124 9 0 8 34 39 199 178 19 16 23 25 15 33 -9 9 -41 -5 -129 -54
-65 -37 -120 -65 -122 -63 -2 2 26 77 62 167 60 152 67 180 45 180 -5 0 -43
-60 -85 -133 -41 -74 -82 -143 -90 -153 -13 -18 -14 -17 -15 13 -1 90 -23 339
-30 347 -6 6 -13 0 -18 -15z m-93 -316 c13 -26 17 -44 11 -48 -10 -6 -24 22
-36 73 -9 34 -2 28 25 -25z m111 2 c0 -19 -4 -35 -10 -35 -5 0 -10 16 -10 35
0 19 5 35 10 35 6 0 10 -16 10 -35z m91 -42 c-12 -20 -14 -14 -5 12 4 9 9 14
11 11 3 -2 0 -13 -6 -23z m-33 -49 c23 -15 65 -75 57 -82 -2 -3 -18 7 -35 21
-56 48 -154 43 -213 -10 -17 -16 -17 -16 -11 3 15 40 46 74 77 83 39 12 94 5
125 -15z m132 -8 c0 -2 -11 -11 -25 -20 -14 -9 -25 -13 -25 -8 0 5 10 14 23
20 27 13 27 13 27 8z m-360 -28 c0 -6 -6 -5 -15 2 -8 7 -15 14 -15 16 0 2 7 1
15 -2 8 -4 15 -11 15 -16z m353 -105 c-7 -2 -19 -2 -25 0 -7 3 -2 5 12 5 14 0
19 -2 13 -5z"/>
<path d="M822 404 c-43 -30 -22 -86 38 -99 35 -8 47 -22 31 -38 -8 -8 -21 -8
-47 2 -26 9 -39 10 -47 2 -17 -17 22 -40 70 -41 35 0 46 5 59 25 25 38 7 71
-46 85 -56 15 -56 43 2 38 49 -4 64 17 23 32 -37 14 -57 13 -83 -6z"/>
<path d="M2001 406 c-84 -47 -52 -176 44 -176 55 0 75 15 75 55 0 24 -5 35
-15 35 -9 0 -15 -9 -15 -24 0 -39 -47 -49 -80 -16 -44 44 -9 107 54 97 46 -7
67 15 30 31 -32 15 -63 15 -93 -2z"/>
<path d="M2648 391 c-28 -25 -33 -36 -32 -72 2 -57 37 -89 97 -89 54 1 77 19
77 59 0 24 -4 31 -20 31 -15 0 -20 -7 -20 -25 0 -18 -7 -26 -24 -31 -55 -13
-93 43 -61 92 14 22 22 25 62 22 53 -4 70 16 28 32 -44 17 -73 11 -107 -19z"/>
<path d="M3324 410 c-57 -23 -71 -99 -28 -149 21 -26 33 -31 68 -31 53 0 83
21 95 66 23 82 -55 147 -135 114z m96 -63 c13 -24 13 -28 -6 -54 -12 -15 -31
-29 -43 -31 -30 -5 -61 25 -61 57 1 69 76 88 110 28z"/>
<path d="M3848 391 c-67 -60 -29 -161 61 -161 43 0 82 23 66 39 -8 8 -20 7
-43 -1 -28 -11 -34 -10 -57 12 -29 27 -31 47 -9 78 16 23 53 29 84 12 13 -7
21 -6 29 4 9 11 7 18 -11 30 -36 25 -83 20 -120 -13z"/>
<path d="M4672 395 c-27 -23 -32 -33 -32 -71 0 -59 32 -94 87 -94 44 0 90 27
74 43 -7 7 -19 6 -40 -3 -26 -10 -35 -10 -56 4 -34 22 -38 70 -7 94 19 15 64
16 78 2 8 -8 14 -7 23 3 16 20 -7 37 -57 44 -31 4 -44 0 -70 -22z"/>
<path d="M170 395 c0 -10 10 -15 30 -15 l30 0 0 -75 c0 -68 2 -75 20 -75 18 0
20 7 20 75 0 73 1 75 25 75 16 0 25 6 25 15 0 12 -15 15 -75 15 -60 0 -75 -3
-75 -15z"/>
<path d="M350 320 c0 -83 1 -90 20 -90 16 0 20 7 20 35 0 34 1 35 40 35 39 0
40 -1 40 -35 0 -28 4 -35 20 -35 19 0 20 7 20 90 0 83 -1 90 -20 90 -16 0 -20
-7 -20 -35 0 -34 -1 -35 -40 -35 -39 0 -40 1 -40 35 0 28 -4 35 -20 35 -19 0
-20 -7 -20 -90z"/>
<path d="M560 320 l0 -90 65 0 c51 0 65 3 65 15 0 11 -12 15 -51 15 -47 0 -50
2 -47 23 2 18 10 23 46 25 28 2 42 8 42 18 0 10 -12 14 -45 14 -38 0 -45 3
-45 20 0 17 7 20 50 20 38 0 50 4 50 15 0 12 -14 15 -65 15 l-65 0 0 -90z"/>
<path d="M970 320 l0 -90 60 0 c47 0 60 3 60 15 0 11 -11 15 -40 15 l-40 0 0
75 c0 68 -2 75 -20 75 -19 0 -20 -7 -20 -90z"/>
<path d="M1120 320 l0 -90 70 0 c56 0 70 3 70 15 0 11 -12 15 -50 15 -47 0
-50 2 -50 25 0 23 4 25 45 25 33 0 45 4 45 15 0 11 -12 15 -45 15 -38 0 -45 3
-45 20 0 17 7 20 50 20 38 0 50 4 50 15 0 12 -14 15 -70 15 l-70 0 0 -90z"/>
<path d="M1300 320 l0 -90 65 0 c51 0 65 3 65 15 0 11 -12 15 -45 15 -41 0
-45 2 -45 25 0 23 4 25 40 25 29 0 40 4 40 15 0 11 -11 15 -40 15 -33 0 -40 3
-40 20 0 17 7 20 45 20 33 0 45 4 45 15 0 12 -14 15 -65 15 l-65 0 0 -90z"/>
<path d="M1470 320 c0 -83 1 -90 20 -90 14 0 20 7 20 24 0 20 6 24 42 29 64 9
87 55 52 105 -13 19 -24 22 -75 22 l-59 0 0 -90z m109 36 c4 -22 -23 -46 -51
-46 -14 0 -18 8 -18 36 0 34 1 35 32 32 23 -2 34 -9 37 -22z"/>
<path d="M1660 320 c0 -73 3 -90 15 -90 12 0 15 17 15 90 0 73 -3 90 -15 90
-12 0 -15 -17 -15 -90z"/>
<path d="M1740 320 c0 -83 2 -90 20 -90 16 0 19 8 22 57 l3 57 44 -57 c25 -34
51 -57 62 -57 17 0 19 9 19 90 0 73 -3 90 -15 90 -12 0 -15 -13 -15 -55 0 -30
-4 -55 -8 -55 -5 0 -26 25 -48 55 -27 38 -46 55 -61 55 -22 0 -23 -3 -23 -90z"/>
<path d="M2240 320 l0 -90 59 0 c41 0 65 5 75 16 18 17 21 59 6 69 -5 3 -7 19
-3 35 9 46 -10 60 -78 60 l-59 0 0 -90z m95 40 c0 -9 -11 -16 -27 -18 -23 -3
-28 1 -28 18 0 17 5 21 28 18 16 -2 27 -9 27 -18z m4 -59 c23 -15 5 -41 -29
-41 -25 0 -30 4 -30 25 0 19 5 25 23 25 12 0 28 -4 36 -9z"/>
<path d="M2471 388 c-5 -13 -23 -53 -40 -90 -28 -63 -29 -68 -11 -68 11 0 24
9 30 20 8 15 21 20 54 20 35 0 45 -4 49 -20 3 -12 14 -20 27 -20 12 0 20 4 18
9 -1 4 -19 45 -38 90 -29 67 -39 81 -58 81 -14 0 -26 -8 -31 -22z m49 -70 c0
-11 -8 -18 -20 -18 -23 0 -25 12 -9 42 9 17 13 18 20 7 5 -8 9 -22 9 -31z"/>
<path d="M2900 320 c0 -83 1 -90 20 -90 14 0 20 7 20 24 0 20 6 24 42 29 47 6
68 27 68 67 0 42 -28 60 -93 60 l-57 0 0 -90z m109 36 c4 -22 -23 -46 -51 -46
-14 0 -18 8 -18 36 0 34 1 35 32 32 23 -2 34 -9 37 -22z"/>
<path d="M3090 320 c0 -83 1 -90 20 -90 16 0 20 7 20 30 0 19 5 30 14 30 8 0
24 -13 36 -30 14 -19 30 -30 46 -30 l25 0 -22 29 c-20 27 -20 31 -5 52 41 59
10 99 -75 99 l-59 0 0 -90z m108 33 c3 -17 -3 -24 -22 -29 -39 -9 -54 0 -48
31 4 22 9 26 36 23 23 -2 32 -9 34 -25z"/>
<path d="M3510 395 c0 -10 10 -15 30 -15 29 0 30 -1 30 -49 0 -57 -17 -79 -50
-61 -16 9 -22 8 -27 -6 -8 -20 13 -34 53 -34 46 0 54 15 54 102 l0 78 -45 0
c-33 0 -45 -4 -45 -15z"/>
<path d="M3650 320 l0 -90 70 0 c56 0 70 3 70 15 0 11 -12 15 -50 15 -47 0
-50 2 -50 25 0 23 4 25 40 25 29 0 40 4 40 15 0 11 -11 15 -40 15 -33 0 -40 3
-40 20 0 17 7 20 45 20 33 0 45 4 45 15 0 12 -14 15 -65 15 l-65 0 0 -90z"/>
<path d="M4000 395 c0 -10 10 -15 30 -15 l30 0 0 -75 c0 -68 2 -75 20 -75 18
0 20 7 20 75 0 73 1 75 25 75 16 0 25 6 25 15 0 12 -15 15 -75 15 -60 0 -75
-3 -75 -15z"/>
<path d="M4260 320 c0 -83 2 -90 20 -90 16 0 19 8 22 55 l3 56 43 -56 c26 -33
51 -55 63 -55 17 0 19 8 19 90 0 83 -2 90 -20 90 -16 0 -19 -8 -22 -57 l-3
-57 -43 57 c-26 36 -50 57 -62 57 -18 0 -20 -7 -20 -90z"/>
<path d="M4460 403 c0 -5 14 -28 30 -53 20 -30 30 -58 30 -82 0 -31 4 -38 20
-38 16 0 20 7 20 36 0 23 11 55 30 86 35 57 36 58 11 58 -11 0 -28 -15 -41
-37 l-22 -37 -21 37 c-12 21 -29 37 -39 37 -10 0 -18 -3 -18 -7z"/>
</g>
</svg>
